<svg xmlns="http://www.w3.org/2000/svg" width="1200" height="600" viewBox="0 0 1200 600">
  <defs>
    <linearGradient id="lineGradient" x1="0%" y1="0%" x2="100%" y2="0%">
      <stop offset="0%" stop-color="#4a90e2" stop-opacity="0.1" />
      <stop offset="50%" stop-color="#4a90e2" stop-opacity="0.5" />
      <stop offset="100%" stop-color="#4a90e2" stop-opacity="0.1" />
    </linearGradient>
  </defs>
  
  <!-- Horizontal data lines -->
  <path d="M0 100 C300 80, 600 120, 1200 100" stroke="url(#lineGradient)" stroke-width="2" fill="none" />
  <path d="M0 200 C400 180, 700 220, 1200 200" stroke="url(#lineGradient)" stroke-width="2" fill="none" />
  <path d="M0 300 C200 280, 500 320, 1200 300" stroke="url(#lineGradient)" stroke-width="2" fill="none" />
  <path d="M0 400 C300 380, 800 420, 1200 400" stroke="url(#lineGradient)" stroke-width="2" fill="none" />
  <path d="M0 500 C400 480, 600 520, 1200 500" stroke="url(#lineGradient)" stroke-width="2" fill="none" />
  
  <!-- Vertical connecting lines -->
  <path d="M300 0 C280 200, 320 400, 300 600" stroke="url(#lineGradient)" stroke-width="2" fill="none" />
  <path d="M600 0 C580 200, 620 400, 600 600" stroke="url(#lineGradient)" stroke-width="2" fill="none" />
  <path d="M900 0 C880 200, 920 400, 900 600" stroke="url(#lineGradient)" stroke-width="2" fill="none" />
  
  <!-- Data nodes -->
  <circle cx="300" cy="100" r="4" fill="#4a90e2" />
  <circle cx="600" cy="200" r="4" fill="#4a90e2" />
  <circle cx="900" cy="300" r="4" fill="#4a90e2" />
  <circle cx="300" cy="400" r="4" fill="#4a90e2" />
  <circle cx="600" cy="500" r="4" fill="#4a90e2" />
</svg>